<svg xmlns="http://www.w3.org/2000/svg" viewBox="0 0 24 24" width="24" height="24">
  <path d="M12 .297c-6.63 0-12 5.373-12 12 0 5.303 3.438 9.8 8.205 11.387.6.113.82-.258.82-.577v-2.234c-3.338.724-4.033-1.416-4.033-1.416-.546-1.387-1.333-1.756-1.333-1.756-1.089-.744.083-.729.083-.729 1.205.084 1.838 1.237 1.838 1.237 1.07 1.835 2.809 1.304 3.495.997.108-.775.418-1.304.76-1.604-2.665-.305-5.466-1.334-5.466-5.93 0-1.31.467-2.381 1.235-3.221-.123-.303-.535-1.523.117-3.176 0 0 1.008-.322 3.301 1.23.957-.266 1.983-.399 3.005-.404 1.022.005 2.048.138 3.006.404 2.291-1.552 3.298-1.23 3.298-1.23.653 1.653.241 2.873.118 3.176.77.84 1.235 1.911 1.235 3.221 0 4.61-2.807 5.624-5.478 5.921.43.37.814 1.102.814 2.222v3.293c0 .322.218.694.824.576C20.565 22.092 24 17.592 24 12.297c0-6.627-5.373-12-12-12"/>
</svg>